<svg width="20" height="20" viewBox="0 0 20 20" fill="none" xmlns="http://www.w3.org/2000/svg">
<g clip-path="url(#clip0_1_955)">
<path d="M12.6663 0C12.4824 0 12.333 0.149336 12.333 0.33332C12.333 0.517304 12.4824 0.666639 12.6663 0.666639C16.3424 0.666639 19.333 3.6573 19.333 7.33331C19.333 7.51729 19.4823 7.66663 19.6663 7.66663C19.8507 7.66663 19.9996 7.51729 19.9996 7.33331C19.9996 3.28968 16.71 0 12.6663 0Z" fill="#ADBC00"/>
<path d="M12.6663 2C12.4824 2 12.333 2.14934 12.333 2.33332C12.333 2.5173 12.4824 2.66664 12.6663 2.66664C15.2397 2.66664 17.333 4.75996 17.333 7.33331C17.333 7.51729 17.4823 7.66663 17.6663 7.66663C17.8507 7.66663 17.9997 7.51729 17.9997 7.33331C17.9997 4.39269 15.6073 2 12.6663 2Z" fill="#ADBC00"/>
<path d="M12.6663 4C12.4824 4 12.333 4.14934 12.333 4.33332C12.333 4.5173 12.4824 4.66664 12.6663 4.66664C14.1367 4.66664 15.333 5.86296 15.333 7.33331C15.333 7.5173 15.4824 7.66663 15.6663 7.66663C15.8507 7.66663 15.9997 7.5173 15.9997 7.33331C15.9997 5.49535 14.5043 4 12.6663 4Z" fill="#ADBC00"/>
<path d="M18.0381 12.5084C17.1311 12.389 16.2368 12.1664 15.3801 11.8473C14.5505 11.5363 13.6078 11.737 12.9765 12.36L11.9228 13.4113C9.71346 12.1087 7.8678 10.2667 6.56214 8.06168L7.61648 7.00969C8.23979 6.38071 8.44112 5.43903 8.12948 4.61138C7.80983 3.75606 7.58683 2.86372 7.46683 1.95536C7.30714 0.829351 6.33214 -0.00431909 5.1925 1.68354e-05H2.27617C2.20816 1.68354e-05 2.14016 0.00333714 2.07285 0.00935276C1.46715 0.0640402 0.918831 0.351032 0.529145 0.817047C0.139497 1.28337 -0.0451902 1.87337 0.0101613 2.48368C0.333169 5.51969 1.38317 8.47867 3.04484 11.0387C4.55351 13.408 6.60585 15.4563 8.97749 16.9603C11.5328 18.6143 14.4838 19.662 17.5181 19.991C17.5868 19.997 17.6558 20 17.7251 20C17.7271 20 17.7291 20 17.7315 20C18.9875 19.9946 20.0048 18.9706 19.9998 17.7183V14.812C20.0261 13.6597 19.1848 12.6697 18.0381 12.5084ZM19.3331 14.8C19.3331 14.8026 19.3331 14.8057 19.3331 14.8083V17.72C19.3365 18.606 18.6168 19.33 17.7292 19.3337C17.6772 19.3317 17.6272 19.3317 17.5831 19.3276C14.6585 19.0103 11.8078 17.9983 9.33682 16.399C7.04484 14.9453 5.06351 12.968 3.60551 10.678C1.99914 8.20336 0.985159 5.34536 0.67348 2.41837C0.634809 1.99103 0.76516 1.57439 1.04082 1.2447C1.31649 0.915015 1.70414 0.712047 2.13281 0.673375C2.18047 0.669039 2.22816 0.666695 2.27613 0.666695H5.19546C5.20082 0.666695 5.20613 0.666695 5.21148 0.666695C6.01015 0.666695 6.69448 1.25837 6.80613 2.04568C6.93245 3.00068 7.16745 3.94267 7.50511 4.84567C7.72546 5.43098 7.58312 6.09633 7.14409 6.53934L5.90945 7.77133C5.80277 7.87766 5.78078 8.04168 5.85511 8.17235C7.26776 10.6523 9.32811 12.7084 11.8124 14.118C11.9431 14.1923 12.1064 14.1697 12.2124 14.064L13.4458 12.8334C13.8914 12.3937 14.5591 12.252 15.1464 12.472C16.0504 12.8087 16.9941 13.0437 17.9477 13.169C18.7578 13.283 19.3534 13.984 19.3331 14.8Z" fill="#ADBC00"/>
<path d="M5.00005 1.3335H2.27572C2.24771 1.3335 2.22006 1.33482 2.1924 1.33748C1.85275 1.36814 1.64506 1.5608 1.55174 1.67248C1.47674 1.76213 1.30541 2.00682 1.33541 2.34283C1.46143 3.52517 1.6894 4.67548 2.01373 5.76216C2.05705 5.90649 2.18939 6.00017 2.33307 6.00017C2.36475 6.00017 2.39674 5.99583 2.42873 5.98618C2.60506 5.93353 2.70541 5.74786 2.65271 5.57153C2.34006 4.52419 2.12006 3.4142 1.99904 2.27787C1.99139 2.19322 2.04639 2.12021 2.06338 2.09955C2.09072 2.06689 2.1517 2.01057 2.27572 2.00021H4.99939C4.99974 2.00021 4.99974 2.00021 4.99974 2.00021C5.18372 2.00021 5.33306 1.85123 5.33306 1.66721C5.33337 1.48314 5.18404 1.3335 5.00005 1.3335Z" fill="#ADBC00"/>
<path d="M18.3329 14.6667C18.149 14.6667 17.9996 14.8161 17.9996 15.0001L17.9993 17.7197C17.9996 17.7947 17.971 17.8654 17.9186 17.918C17.8663 17.9707 17.7969 17.9997 17.731 18L17.7003 17.9994C16.5613 17.8757 15.4606 17.6563 14.429 17.3474C14.2533 17.2944 14.067 17.3947 14.014 17.571C13.961 17.7474 14.0613 17.933 14.2376 17.986C15.308 18.3067 16.449 18.534 17.6343 18.6627C17.6617 18.6654 17.7173 18.6667 17.7253 18.6667C17.9777 18.6657 18.2143 18.5667 18.392 18.3877C18.5697 18.2084 18.667 17.9704 18.666 17.7184L18.6663 15.0001C18.6663 14.8161 18.517 14.6667 18.3329 14.6667Z" fill="#ADBC00"/>
</g>
<defs>
<clipPath id="clip0_1_955">
<rect width="20" height="20" fill="white"/>
</clipPath>
</defs>
</svg>
